# xmcd
#
# Track frame offsets: 
#        182
#        23120
#        42405
#        66450
#        77915
#        97025
#        117925
#        134900
#        153200
#        169850
#
# Disc length: 2554 seconds
#
# Revision: 1
# Processed by: cddbd v1.5.2PL0 Copyright (c) Steve Scherf et al.
# Submitted via: ExactAudioCopy v0.99pb5
#
DISCID=8c09f80a
DTITLE=Nigel Shaw - Brother Sun Sister Moon (1989)
DYEAR=1989
DGENRE=New Age
TTITLE0=Brother Sun (part I)
TTITLE1=Brother Sun (part II)
TTITLE2=Brother Sun (part III)
TTITLE3=Brother Sun (part IV)
TTITLE4=Brother Sun (part V)
TTITLE5=Sister Moon (part I)
TTITLE6=Sister Moon (part II)
TTITLE7=Sister Moon (part III)
TTITLE8=Sister Moon (part IV)
TTITLE9=Sister Moon (part V)
EXTD=YEAR: 1989
EXTT0=
EXTT1=
EXTT2=
EXTT3=
EXTT4=
EXTT5=
EXTT6=
EXTT7=
EXTT8=
EXTT9=
PLAYORDER=
